<svg width="100" height="120" viewBox="0 0 100 120" xmlns="http://www.w3.org/2000/svg">
  <!-- Fondo del escudo -->
  <path d="M50 5 L90 20 L90 85 L50 115 L10 85 L10 20 Z" fill="#c8102e" stroke="#001f54" stroke-width="2"/>
  
  <!-- Borde interno -->
  <path d="M50 8 L87 22 L87 83 L50 112 L13 83 L13 22 Z" fill="none" stroke="#ffd700" stroke-width="1"/>
  
  <!-- Franjas blancas horizontales -->
  <rect x="13" y="30" width="74" height="6" fill="#ffffff"/>
  <rect x="13" y="44" width="74" height="6" fill="#ffffff"/>
  <rect x="13" y="58" width="74" height="6" fill="#ffffff"/>
  <rect x="13" y="72" width="74" height="6" fill="#ffffff"/>
  
  <!-- Sección superior azul -->
  <path d="M50 8 L87 22 L87 35 L13 35 L13 22 Z" fill="#001f54"/>
  
  <!-- Corona dorada -->
  <g transform="translate(50,18)">
    <circle r="2" fill="#ffd700"/>
    <path d="M-4 -3 L-2 -6 L0 -7 L2 -6 L4 -3 L3 0 L-3 0 Z" fill="#ffd700"/>
    <circle cx="-3" cy="-1" r="0.5" fill="#ffffff"/>
    <circle cx="3" cy="-1" r="0.5" fill="#ffffff"/>
    <circle cx="0" cy="-3" r="0.5" fill="#ffffff"/>
  </g>
  
  <!-- Letra A estilizada en el centro -->
  <g transform="translate(50,90)" fill="#ffffff" stroke="#001f54" stroke-width="0.5">
    <path d="M-12 15 L-8 -10 L-4 -10 L0 5 L4 -10 L8 -10 L12 15 M-6 0 L6 0" stroke-width="3" fill="none" stroke="#ffffff"/>
    <circle cx="0" cy="-5" r="2" fill="#ffd700"/>
  </g>
  
  <!-- Estrellas decorativas -->
  <g fill="#ffd700">
    <path d="M25 25 L26 27 L28 27 L26.5 28.5 L27 30 L25 29 L23 30 L23.5 28.5 L22 27 L24 27 Z"/>
    <path d="M75 25 L76 27 L78 27 L76.5 28.5 L77 30 L75 29 L73 30 L73.5 28.5 L72 27 L74 27 Z"/>
  </g>
  
  <!-- Texto ATM en la parte inferior -->
  <text x="50" y="105" text-anchor="middle" font-family="Arial Black" font-size="8" font-weight="bold" fill="#ffffff" stroke="#001f54" stroke-width="0.2">ATM</text>
  
  <!-- Decoración adicional -->
  <path d="M20 40 Q30 35 40 40 Q30 45 20 40" fill="#ffd700" opacity="0.7"/>
  <path d="M80 40 Q70 35 60 40 Q70 45 80 40" fill="#ffd700" opacity="0.7"/>
  
  <!-- Sombra interior -->
  <path d="M50 8 L87 22 L87 83 L50 112 L13 83 L13 22 Z" fill="none" stroke="rgba(0,0,0,0.2)" stroke-width="1"/>
</svg>